#tb 0: 1/10
#media_type 0: video
#codec_id 0: gif
#dimensions 0: 217x217
#sar 0: 0/1
0,          0,          0,        1,     1297, 0x53e8b1c1
0,          1,          1,        1,      158, 0xe1873465, F=0x0
0,          2,          2,        1,      143, 0x56992b17, F=0x0
0,          3,          3,        1,      169, 0x4f0434c7, F=0x0
0,          4,          4,        1,      254, 0xb4845bf3, F=0x0
0,          5,          5,        1,      221, 0xa02a4ae2, F=0x0
0,          6,          6,        1,      176, 0xdcfc3a8b, F=0x0
0,          7,          7,        1,      189, 0xb45f3f8d, F=0x0
0,          8,          8,        1,      139, 0xf2622fc0, F=0x0
0,          9,          9,        1,      160, 0xf77b327d, F=0x0
0,         10,         10,        1,      149, 0x56b62de9, F=0x0
0,         11,         11,        1,      190, 0x1eca3f72, F=0x0
0,         12,         12,        1,      308, 0xfc7373fc, F=0x0
0,         13,         13,        1,      193, 0x94304232, F=0x0
0,         14,         14,        1,      191, 0x82e84504, F=0x0
0,         15,         15,        1,      198, 0xd31944a2, F=0x0
0,         16,         16,        1,      417, 0x9547ac22, F=0x0
0,         17,         17,        1,      163, 0xb55537d0, F=0x0
0,         18,         18,        1,      383, 0x634f9f88, F=0x0
0,         19,         19,        1,      193, 0xf6d24046, F=0x0
0,         20,         20,        1,      337, 0x45d6916f, F=0x0
0,         21,         21,        1,      199, 0xabb34a72, F=0x0
0,         22,         22,        1,      308, 0x097f7e58, F=0x0
0,         23,         23,        1,      186, 0x369b41cc, F=0x0
0,         24,         24,        1,      199, 0xa93c4113, F=0x0
0,         25,         25,        1,      163, 0x16823904, F=0x0
0,         26,         26,        1,      302, 0xaf1d78da, F=0x0
0,         27,         27,        1,      189, 0x3f7a3bde, F=0x0
0,         28,         28,        1,      157, 0x45e23500, F=0x0
0,         29,         29,        1,      205, 0x797b4510, F=0x0
0,         30,         30,        1,      160, 0x20e533d1, F=0x0
0,         31,         31,        1,      202, 0xd3b748b3, F=0x0
0,         32,         32,        1,      160, 0x207c371f, F=0x0
0,         33,         33,        1,      215, 0x079951b6, F=0x0
0,         34,         34,        1,      422, 0xbb9db080, F=0x0
0,         35,         35,        1,      184, 0x3a044098, F=0x0
0,         36,         36,        1,      289, 0xf2757206, F=0x0
0,         37,         37,        1,      190, 0xc3264203, F=0x0
0,         38,         38,        1,      195, 0x28544262, F=0x0
0,         39,         39,        1,      199, 0x32db4bba, F=0x0
0,         40,         40,        1,      448, 0x64a8bfe8, F=0x0
0,         41,         41,        1,      170, 0x62a536d7, F=0x0
0,         42,         42,        1,      279, 0xe1df6ff6, F=0x0
0,         43,         43,        1,      180, 0x762f3aac, F=0x0
0,         44,         44,        1,      303, 0x73727c79, F=0x0
0,         45,         45,        1,      209, 0xf4a8515c, F=0x0
0,         46,         46,        1,      198, 0xe09f451e, F=0x0
0,         47,         47,        1,      194, 0x301e4b04, F=0x0
0,         48,         48,        1,      186, 0x7c66421b, F=0x0
0,         49,         49,        1,     1200, 0xe55e34e7, F=0x0
0,         50,         50,        1,      204, 0x25534779, F=0x0
0,         51,         51,        1,     1066, 0x9792efa8, F=0x0
0,         52,         52,        1,      187, 0xd82e41f0, F=0x0
0,         53,         53,        1,      323, 0x0f9d8485, F=0x0
0,         54,         54,        1,      205, 0x86ef4c75, F=0x0
0,         55,         55,        1,      213, 0x6e515113, F=0x0
0,         56,         56,        1,      208, 0x1ac84bed, F=0x0
0,         57,         57,        1,      737, 0x68a047be, F=0x0
0,         58,         58,        1,      181, 0x84353a71, F=0x0
0,         59,         59,        1,      614, 0x3c9a142a, F=0x0
0,         60,         60,        1,      215, 0xacaf535d, F=0x0
0,         61,         61,        1,      291, 0x4dab7020, F=0x0
0,         62,         62,        1,      208, 0x3dd84d1f, F=0x0
0,         63,         63,        1,      208, 0x8ccb45cc, F=0x0
0,         64,         64,        1,      203, 0xa905456b, F=0x0
0,         65,         65,        1,      531, 0x6b32eaf4, F=0x0
0,         66,         66,        1,      178, 0xd30b3bff, F=0x0
0,         67,         67,        1,      446, 0x881abe2a, F=0x0
0,         68,         68,        1,      188, 0xb5a43e6b, F=0x0
0,         69,         69,        1,      177, 0x9255436c, F=0x0
0,         70,         70,        1,      112, 0x2990213a, F=0x0
0,         71,         71,        1,      296, 0x7d6e7183, F=0x0
0,         72,         72,        1,      153, 0x35053313, F=0x0
0,         73,         73,        1,      218, 0xcf105015, F=0x0
0,         74,         74,        1,      202, 0xb4634837, F=0x0
0,         75,         75,        1,      239, 0x0a4b5b7b, F=0x0
0,         76,         76,        1,      139, 0x18d92e35, F=0x0
0,         77,         77,        1,      467, 0x784dc79e, F=0x0
0,         78,         78,        1,      274, 0x1e9b78ef, F=0x0
0,         79,         79,        1,      404, 0xb5c6ab9b, F=0x0
0,         80,         80,        1,      257, 0x7aaa66ce, F=0x0
0,         81,         81,        1,      419, 0xcb62b6cb, F=0x0
0,         82,         82,        1,      208, 0xcbba506d, F=0x0
0,         83,         83,        1,      294, 0x031a76f9, F=0x0
0,         84,         84,        1,      191, 0x5ba83f77, F=0x0
0,         85,         85,        1,      181, 0xfc454323, F=0x0
0,         86,         86,        1,      218, 0xcd7e540e, F=0x0
0,         87,         87,        1,      423, 0xdcebc01f, F=0x0
0,         88,         88,        1,      202, 0x160a4ab6, F=0x0
0,         89,         89,        1,      317, 0xff2b8104, F=0x0
0,         90,         90,        1,      172, 0x68753e2d, F=0x0
0,         91,         91,        1,      275, 0x7f766cd1, F=0x0
0,         92,         92,        1,      214, 0xf37e5043, F=0x0
0,         93,         93,        1,      182, 0x5e5544f6, F=0x0
0,         94,         94,        1,      151, 0xf74532b7, F=0x0
0,         95,         95,        1,      157, 0xe99b33b0, F=0x0
0,         96,         96,        1,      202, 0x77994327, F=0x0
0,         97,         97,        1,      162, 0x93f235fc, F=0x0
0,         98,         98,        1,      186, 0xc25d3f3f, F=0x0
0,         99,         99,        1,      318, 0xdf547809, F=0x0
0,        100,        100,        1,      225, 0xf8074f18, F=0x0
0,        101,        101,        1,      207, 0x12204757, F=0x0
0,        102,        102,        1,      212, 0xd2ec4c59, F=0x0
0,        103,        103,        1,      153, 0x0e1c33cd, F=0x0
0,        104,        104,        1,      196, 0x45d4455d, F=0x0
0,        105,        105,        1,      146, 0x5dba32b0, F=0x0
0,        106,        106,        1,      194, 0x13a8490b, F=0x0
0,        107,        107,        1,      304, 0xcf73832f, F=0x0
0,        108,        108,        1,      194, 0x68fd43c9, F=0x0
0,        109,        109,        1,      190, 0xdbc64442, F=0x0
0,        110,        110,        1,      204, 0x8eb94b27, F=0x0
0,        111,        111,        1,      136, 0xd0162d03, F=0x0
0,        112,        112,        1,      171, 0xbb8b3d15, F=0x0
0,        113,        113,        1,      140, 0x4cb930a9, F=0x0
0,        114,        114,        1,      158, 0xdebb32d2, F=0x0
0,        115,        115,        1,       94, 0x16a71c65, F=0x0
0,        116,        116,        1,      110, 0x358d20bf, F=0x0
0,        117,        117,        1,      256, 0x49a469b7, F=0x0
0,        118,        118,        1,      220, 0x08b95486, F=0x0
0,        119,        119,        1,      221, 0xe0af4f92, F=0x0
0,        120,        120,        1,      205, 0x7ac444a5, F=0x0
0,        121,        121,        1,      169, 0x62c039d3, F=0x0
0,        122,        122,        1,      970, 0xc8f6c8a6, F=0x0
0,        123,        123,        1,      181, 0x0d9c42ba, F=0x0
0,        124,        124,        1,      955, 0xdf5dba5e, F=0x0
0,        125,        125,        1,      158, 0xa01833fd, F=0x0
0,        126,        126,        1,      344, 0xd17989f3, F=0x0
0,        127,        127,        1,      627, 0x8c611977, F=0x0
0,        128,        128,        1,      172, 0x7cf83c63, F=0x0
0,        129,        129,        1,      494, 0xadccdc2b, F=0x0
0,        130,        130,        1,      184, 0x4e784407, F=0x0
0,        131,        131,        1,      352, 0x852f992b, F=0x0
0,        132,        132,        1,      351, 0x99e78bb8, F=0x0
0,        133,        133,        1,      170, 0x9f4b3869, F=0x0
0,        134,        134,        1,      275, 0x29b96b3c, F=0x0
0,        135,        135,        1,      168, 0x98d0399b, F=0x0
0,        136,        136,        1,      169, 0x015039aa, F=0x0
0,        137,        137,        1,      521, 0x3c33db57, F=0x0
0,        138,        138,        1,     1262, 0x9cf44321, F=0x0
0,        139,        139,        1,      994, 0x5ea8bcd4, F=0x0
0,        140,        140,        1,      290, 0xf24f72b0, F=0x0
0,        141,        141,        1,      188, 0x36cb408f, F=0x0
0,        142,        142,        1,      164, 0x6c813b02, F=0x0
0,        143,        143,        1,      212, 0x1dfb463e, F=0x0
0,        144,        144,        1,      870, 0xd89e94ed, F=0x0
0,        145,        145,        1,      635, 0x87bf1ae2, F=0x0
0,        146,        146,        1,      290, 0x34ff78fe, F=0x0
0,        147,        147,        1,      211, 0x9f755207, F=0x0
0,        148,        148,        1,      177, 0x3f003c44, F=0x0
0,        149,        149,        1,      182, 0xe8c23eea, F=0x0
0,        150,        150,        1,      588, 0xb4b9fc5d, F=0x0
0,        151,        151,        1,      163, 0x3078356b, F=0x0
0,        152,        152,        1,      407, 0x4161b245, F=0x0
0,        153,        153,        1,      204, 0xe2a64478, F=0x0
0,        154,        154,        1,      290, 0x5cc079af, F=0x0
0,        155,        155,        1,      308, 0xf5958253, F=0x0
0,        156,        156,        1,      196, 0xb1cb46f0, F=0x0
0,        157,        157,        1,      181, 0x0aee4103, F=0x0
0,        158,        158,        1,      203, 0x36784ee0, F=0x0
0,        159,        159,        1,      227, 0x23fd5b71, F=0x0
0,        160,        160,        1,      524, 0x18a6e404, F=0x0
0,        161,        161,        1,      377, 0x1f5697de, F=0x0
0,        162,        162,        1,      196, 0x72304538, F=0x0
0,        163,        163,        1,      250, 0xb8e46580, F=0x0
0,        164,        164,        1,      214, 0xe9df51b6, F=0x0
0,        165,        165,        1,      323, 0xacbb9067, F=0x0
0,        166,        166,        1,      176, 0xa12a410c, F=0x0
0,        167,        167,        1,      305, 0x21227d7a, F=0x0
0,        168,        168,        1,      179, 0x3dac422b, F=0x0
0,        169,        169,        1,      245, 0x948963cd, F=0x0
0,        170,        170,        1,      181, 0x407140fb, F=0x0
0,        171,        171,        1,      241, 0xd2a35a7a, F=0x0
0,        172,        172,        1,      172, 0x9fa83e96, F=0x0
